<svg width="1200" height="320" viewBox="0 0 1200 320" fill="none" xmlns="http://www.w3.org/2000/svg">
  <rect width="1200" height="320" rx="28" fill="#FFF8FA"/>
  <rect x="74" y="60" width="288" height="200" rx="28" fill="#FFFDFB" stroke="#EADCE2" stroke-width="2"/>
  <rect x="456" y="60" width="288" height="200" rx="28" fill="#FFFDFB" stroke="#EADCE2" stroke-width="2"/>
  <rect x="838" y="60" width="288" height="200" rx="28" fill="#FFFDFB" stroke="#EADCE2" stroke-width="2"/>

  <text x="126" y="114" fill="#2D241D" font-family="Arial, sans-serif" font-size="28" font-weight="700">Local App</text>
  <text x="512" y="114" fill="#2D241D" font-family="Arial, sans-serif" font-size="28" font-weight="700">Repository</text>
  <text x="891" y="114" fill="#2D241D" font-family="Arial, sans-serif" font-size="28" font-weight="700">Firebase</text>

  <rect x="126" y="142" width="120" height="12" rx="6" fill="#FCEBED"/>
  <rect x="126" y="170" width="154" height="12" rx="6" fill="#FDEFE8"/>
  <rect x="126" y="198" width="132" height="12" rx="6" fill="#E4EEF8"/>

  <rect x="512" y="142" width="144" height="12" rx="6" fill="#FCEBED"/>
  <rect x="512" y="170" width="172" height="12" rx="6" fill="#FDEFE8"/>
  <rect x="512" y="198" width="136" height="12" rx="6" fill="#E4EEF8"/>

  <rect x="891" y="142" width="120" height="12" rx="6" fill="#FCEBED"/>
  <rect x="891" y="170" width="154" height="12" rx="6" fill="#FDEFE8"/>
  <rect x="891" y="198" width="132" height="12" rx="6" fill="#E4EEF8"/>

  <path d="M362 160H456" stroke="#B86D7C" stroke-width="4" stroke-linecap="round"/>
  <path d="M744 160H838" stroke="#B86D7C" stroke-width="4" stroke-linecap="round"/>
  <path d="M442 150L456 160L442 170" stroke="#B86D7C" stroke-width="4" stroke-linecap="round" stroke-linejoin="round"/>
  <path d="M824 150L838 160L824 170" stroke="#B86D7C" stroke-width="4" stroke-linecap="round" stroke-linejoin="round"/>
</svg>
